<?xml version="1.0" encoding="UTF-8"?>
<svg width="256" height="256" viewBox="0 0 256 256" fill="none" xmlns="http://www.w3.org/2000/svg">
  <defs>
    <linearGradient id="g" x1="40" y1="30" x2="220" y2="230" gradientUnits="userSpaceOnUse">
      <stop stop-color="#8EC5FF"/>
      <stop offset="0.55" stop-color="#A7F3D0"/>
      <stop offset="1" stop-color="#FDBA74"/>
    </linearGradient>
    <filter id="s" x="-20%" y="-20%" width="140%" height="140%">
      <feDropShadow dx="0" dy="8" stdDeviation="10" flood-color="#0B2A4A" flood-opacity="0.18"/>
    </filter>
  </defs>

  <!-- soft blob -->
  <path d="M58 94c12-35 52-63 98-52 46 12 71 60 56 104-16 44-66 78-116 62-50-16-50-79-38-114Z"
        fill="url(#g)" filter="url(#s)" opacity="0.95"/>

  <!-- heart check mark -->
  <path d="M128 196c-32-18-58-43-58-73 0-21 15-38 36-38 14 0 24 7 30 16 6-9 16-16 30-16 21 0 36 17 36 38 0 30-26 55-58 73Z"
        fill="#0B2A4A" opacity="0.92"/>

  <path d="M105 127l16 16 32-36" stroke="#F9FAF7" stroke-width="12" stroke-linecap="round" stroke-linejoin="round"/>
</svg>
